<?xml version="1.0" encoding="UTF-8"?>
<svg width="192px" height="56px" viewBox="0 0 192 56" version="1.1" xmlns="http://www.w3.org/2000/svg" xmlns:xlink="http://www.w3.org/1999/xlink">
    <title>logo</title>
    <defs>
        <polygon id="path-1" points="0 0 25 0 25 25 0 25"></polygon>
        <polygon id="path-3" points="0 25 192 25 192 0 0 0"></polygon>
    </defs>
    <g id="Go-Survey_v2" stroke="none" stroke-width="1" fill="none" fill-rule="evenodd">
        <g id="02_專案與活動管理-0010" transform="translate(-34, -34)">
            <g id="logo" transform="translate(34, 34)">
                <g id="Group-23">
                    <path d="M23.6567861,11.6210938 C23.8467378,11.6210938 24.0018192,11.779843 24,11.9714529 C23.994478,12.7147512 23.971537,13.3770549 23.9302432,13.9583642 C23.8825258,14.6299245 23.8114086,15.2473341 23.7168916,15.811056 C23.6219158,16.3747778 23.4975754,16.8903658 23.3438705,17.3578199 C23.189248,17.825274 22.9937905,18.2867113 22.7570391,18.742132 C21.7609397,20.7804169 20.3863134,22.3327347 18.6322426,23.3995483 C16.8777129,24.4663618 14.8153147,25 12.4450478,25 C10.6432597,25 8.98370583,24.6885182 7.46684518,24.067406 C5.94952571,23.4458309 4.64005194,22.5909916 3.53796505,21.502888 C2.43587815,20.4147845 1.57008383,19.1119298 0.942417353,17.5929354 C0.313833237,16.0748667 0,14.4188759 0,12.6254258 C0,10.7843047 0.313833237,9.09221342 0.942417353,7.55007775 C1.57008383,6.00747927 2.44092518,4.68055761 3.55585905,3.56884997 C4.66987528,2.4566795 5.99678423,1.58425281 7.53842118,0.950181428 C9.07914049,0.317035693 10.7616353,0 12.5872822,0 C14.8153147,0 16.7831959,0.468379739 18.4900082,1.40467639 C20.0981742,2.28774807 21.45353,3.57856931 22.5569933,5.27806576 C22.6666514,5.44699719 22.6056283,5.67702162 22.4289824,5.77236374 L18.9827815,7.63199793 C18.8249472,7.71715788 18.6313249,7.66254443 18.5335962,7.51120039 C17.1199701,5.32527399 15.1259362,4.23207938 12.551953,4.23207938 C11.437478,4.23207938 10.4060494,4.44220231 9.45812625,4.86152251 C8.50974423,5.28084271 7.68570257,5.86215195 6.98691891,6.60452459 C6.28767644,7.34782287 5.74259766,8.23413433 5.35168257,9.26438463 C4.96030867,10.2950977 4.76485112,11.4091195 4.76485112,12.6073756 C4.76485112,13.7820275 4.96030867,14.8664285 5.35168257,15.8605783 C5.74259766,16.8556539 6.28125295,17.7178984 6.96902491,18.4487004 C7.65633805,19.1795024 8.47441505,19.7487781 9.42279706,20.1565277 C10.3707203,20.5638144 11.40169,20.7674578 12.516165,20.7674578 C14.2229774,20.7674578 15.6388975,20.3074089 16.7653019,19.3863855 C17.7866364,18.5519105 18.4225616,17.4656583 18.6739953,16.1280917 C18.7143715,15.9124148 18.5556196,15.71016 18.3376798,15.71016 L13.4989586,15.71016 C13.3094657,15.71016 13.1562197,15.5551133 13.1562197,15.3639662 L13.1562197,11.9668246 C13.1562197,11.7761404 13.3094657,11.6210938 13.4989586,11.6210938 L23.6567861,11.6210938 Z" id="Fill-1" fill="#FFFFFF"></path>
                    <path d="M78.0626318,5.58065596 C77.9395653,5.74706232 77.6997433,5.7675145 77.5581943,5.61737692 C77.0429377,5.07121077 76.536697,4.67006917 76.0394721,4.41302246 C75.4570474,4.11274729 74.7930291,3.9626097 74.047868,3.9626097 C73.1165293,3.9626097 72.3362064,4.22058605 71.7073499,4.73607393 C71.0784935,5.2515618 70.7638399,5.88093113 70.7638399,6.62371709 C70.7638399,7.27121449 71.0144809,7.80483043 71.5148613,8.2241001 C72.0161432,8.6438346 72.9416216,9.11702365 74.2926487,9.64459691 C74.9215051,9.88444519 75.4683172,10.1005875 75.9348881,10.2920943 C76.4005575,10.4840659 76.813484,10.66953 77.1750201,10.8494162 C77.5356546,11.0293024 77.8557178,11.2152313 78.1352095,11.4062732 C78.4151521,11.5982448 78.6824724,11.8139224 78.9389737,12.0537706 C80.3129912,13.2525472 81,14.9310204 81,17.0882604 C81,18.2637959 80.8021018,19.3366057 80.4063054,20.3076194 C80.0100582,21.2781682 79.456935,22.1115945 78.7469358,22.8065038 C78.036035,23.5023427 77.1862899,24.0415365 76.1963482,24.4250149 C75.2064064,24.8080284 74.1060203,25 72.8951899,25 C71.1947981,25 69.6986156,24.6337201 68.4061917,23.9011602 C67.1813867,23.2076454 66.0665752,22.1306522 65.0617573,20.67204 C64.9652875,20.5321285 64.98377,20.3369032 65.103681,20.2179087 L67.5109165,17.8236093 C67.6668909,17.6692883 67.926097,17.6967128 68.0374429,17.8877547 C68.5391757,18.7486055 69.1572131,19.4230626 69.8906535,19.9115908 C70.7291288,20.4703072 71.6721881,20.7492005 72.7202821,20.7492005 C73.7683762,20.7492005 74.6302927,20.43684 75.3055809,19.8111892 C75.980869,19.1855385 76.3189639,18.3679161 76.3189639,17.3573925 C76.3189639,16.3473338 75.8992755,15.5408672 75.061251,14.9393872 C74.8281909,14.7711215 74.4671056,14.5786851 73.9784458,14.3620779 C73.4888845,14.1459356 72.7667138,13.857281 71.8119339,13.4961141 C70.7638399,13.0875353 69.8784821,12.6724491 69.1572131,12.2513201 C68.4350424,11.8301911 67.8467574,11.3611855 67.3928087,10.8443031 C66.93886,10.326956 66.6066254,9.75568942 66.3974574,9.12957385 C66.1873878,8.50438792 66.082353,7.79460434 66.082353,7.00068794 C66.082353,5.99062918 66.2626702,5.05866057 66.6242063,4.20431727 C66.9848409,3.35043879 67.4915324,2.61090659 68.1438301,1.98479102 C68.795677,1.35960509 69.5642793,0.872471367 70.449637,0.523389856 C71.334544,0.174773167 72.3014953,0 73.3495894,0 C75.8289517,0 78.0301747,0.825059497 79.9523567,2.47471367 C80.0907502,2.59324334 80.1114867,2.80566711 80.0028455,2.95301577 L78.0626318,5.58065596 Z" id="Fill-3" fill="#FFFFFF"></path>
                    <path d="M89.6083199,15.4664825 C89.6083199,16.0545286 89.6197549,16.5599304 89.6435398,16.9822337 C89.6668673,17.4058994 89.7025446,17.7696252 89.7501144,18.0756816 C89.7972267,18.3812839 89.8740702,18.6573704 89.9801873,18.9043952 C90.0867618,19.1509659 90.211175,19.4034397 90.3529695,19.6618167 C90.7541106,20.3438594 91.3212884,20.8783229 92.0540456,21.2656614 C92.7863454,21.653908 93.6014348,21.8478043 94.5002287,21.8478043 C95.3976504,21.8478043 96.2131972,21.653908 96.9459544,21.2656614 C97.6782542,20.8783229 98.245432,20.3438594 98.6474879,19.6618167 C98.7892824,19.4034397 98.9132382,19.1509659 99.0193553,18.9043952 C99.1259298,18.6573704 99.2023159,18.3812839 99.2498856,18.0756816 C99.296998,17.7696252 99.3326753,17.4058994 99.3560028,16.9822337 C99.3797877,16.5599304 99.3921375,16.0545286 99.3921375,15.4664825 L99.3921375,2.33920496 C99.3921375,2.15166594 99.5449096,2 99.7338164,2 L103.658321,2 C103.847228,2 104,2.15166594 104,2.33920496 L104,16.3578605 C104,17.7423798 103.863694,18.9330029 103.592455,19.9297296 C103.320301,20.9269105 102.877079,21.8246457 102.262789,22.6220271 C101.435807,23.6773315 100.343075,24.5046828 98.9841354,25.1027189 C97.6251956,25.701209 96.1304076,26 94.5002287,26 C92.8695924,26 91.374347,25.701209 90.0158646,25.1027189 C88.6564674,24.5046828 87.5637353,23.6773315 86.7367534,22.6220271 C86.1224632,21.8246457 85.6792412,20.9269105 85.4075447,19.9297296 C85.1353908,18.9330029 85,17.7423798 85,16.3578605 L85,2.33920496 C85,2.15166594 85.1532295,2 85.3416789,2 L89.266641,2 C89.4550904,2 89.6083199,2.15166594 89.6083199,2.33920496 L89.6083199,15.4664825 Z" id="Fill-5" fill="#FFFFFF"></path>
                    <path d="M115.982324,11.0823161 C117.454012,11.0823161 118.575583,10.7707725 119.347036,10.1467567 C120.118489,9.5232052 120.504446,8.61178929 120.504446,7.41204465 C120.504446,5.01348397 119.020352,3.81373934 116.053542,3.81373934 L114.972405,3.81373934 C114.782643,3.81373934 114.629179,3.96927898 114.629179,4.16103384 L114.629179,10.7354859 C114.629179,10.9267764 114.782643,11.0823161 114.972405,11.0823161 L115.982324,11.0823161 Z M126.656315,24 L121.826806,24 C121.712397,24 121.60534,23.9424271 121.541933,23.8463175 L115.336306,14.5102242 C115.272899,14.4141146 115.165842,14.3565418 115.051434,14.3565418 L114.972405,14.3565418 C114.782643,14.3565418 114.629179,14.5120814 114.629179,14.703372 L114.629179,23.6531698 C114.629179,23.8444604 114.475256,24 114.285954,24 L110.343225,24 C110.153923,24 110,23.8444604 110,23.6531698 L110,0.346830203 C110,0.155075352 110.153923,0 110.343225,0 L116.872321,0 C118.201573,0 119.376442,0.143932213 120.397389,0.431796638 C121.417876,0.719661063 122.261007,1.13938597 122.925863,1.69097135 C123.661477,2.31498714 124.237195,3.10057844 124.652558,4.04774526 C125.06792,4.99584067 125.276061,6.00893773 125.276061,7.08842932 C125.276061,8.16792091 125.08538,9.1754464 124.705857,10.1110058 C124.326333,11.0465652 123.803913,11.8019771 123.139517,12.377706 C122.664423,12.7858235 122.189789,13.1034029 121.715154,13.331373 C121.35355,13.5050202 120.9097,13.6540597 120.383145,13.7784914 C120.142842,13.8356 120.036704,14.1230001 120.184653,14.3231123 L126.931079,23.4456288 C127.100165,23.6740632 126.93889,24 126.656315,24 L126.656315,24 Z" id="Fill-7" fill="#FFFFFF"></path>
                    <path d="M138.8113,16.9338968 L144.952757,2.21189254 C145.005875,2.08376094 145.135144,2 145.278515,2 L149.64875,2 C149.899767,2 150.069462,2.24630244 149.972158,2.46951404 L139.776352,25.7930878 C139.721354,25.9185029 139.593965,26 139.452945,26 L137.370537,26 C137.228576,26 137.100717,25.9175973 137.046189,25.7912768 L127.02713,2.46725023 C126.931236,2.24494416 127.101401,2 127.351478,2 L131.760729,2 C131.90457,2 132.034309,2.0842137 132.087427,2.21325083 L138.159314,16.9325385 C138.276361,17.2164202 138.693312,17.2173257 138.8113,16.9338968" id="Fill-9" fill="#FFFFFF"></path>
                    <path d="M171.334124,0 L175.86864,0 C175.98428,0 176.091437,0.0622158596 176.152159,0.164825598 L180.717929,7.86705616 C180.848303,8.08713316 181.156378,8.08666886 181.286306,7.86612757 L185.818589,0.165754193 C185.879311,0.0626801571 185.986914,0 186.103001,0 L190.666092,0 C190.930412,0 191.089807,0.304579134 190.945592,0.535334971 L183.236558,12.9032907 C183.201286,12.9594707 183.18298,13.0249366 183.18298,13.0922598 L183.18298,23.6531698 C183.18298,23.8449246 183.033407,24 182.849008,24 L179.018155,24 C178.833756,24 178.68463,23.8449246 178.68463,23.6531698 L178.68463,13.0908669 C178.68463,13.0244723 178.666324,12.959935 178.632391,12.9042193 L171.052838,0.533013484 C170.911302,0.302257646 171.070697,0 171.334124,0" id="Fill-11" fill="#FFFFFF"></path>
                    <g id="Group-15" transform="translate(28, 0)">
                        <mask id="mask-2" fill="white">
                            <use xlink:href="#path-1"></use>
                        </mask>
                        <g id="Clip-14"></g>
                        <path d="M20.2691311,13.5870934 C20.1789373,14.3285458 19.9980964,15.0357489 19.7225294,15.7063885 C19.3123516,16.7028599 18.756232,17.5794585 18.0541707,18.3361844 C17.3516561,19.0924474 16.5263148,19.687183 15.5776936,20.1190027 C14.6290723,20.551748 13.6160917,20.7678893 12.5392048,20.7678893 C11.4618648,20.7678893 10.4434453,20.551748 9.48349317,20.1190027 C8.5230878,19.687183 7.69230769,19.0924474 6.98979314,18.3361844 C6.28727859,17.5794585 5.73070578,16.6912892 5.3214344,15.6707507 C4.91125655,14.6497493 4.70639424,13.5630262 4.70639424,12.4096557 C4.70639424,11.281278 4.91125655,10.2246388 5.3214344,9.23973815 C5.73070578,8.25530032 6.29271742,7.39073527 7.00746932,6.64604299 C7.72131474,5.90227638 8.55254809,5.31355756 9.50116935,4.88081221 C10.4497906,4.44899251 11.4505339,4.23238842 12.5043057,4.23238842 C13.6047608,4.23238842 14.6290723,4.44899251 15.5776936,4.88081221 C15.7082253,4.94051718 15.831052,5.00994157 15.9570514,5.07566333 L18.2427165,1.32952332 C17.9916242,1.20270811 17.736906,1.08052118 17.4744829,0.968516503 C15.9643032,0.322869689 14.3308436,-0.000185131703 12.5745572,-0.000185131703 C10.8413858,-0.000185131703 9.20792618,0.322869689 7.67463152,0.968516503 C6.14043039,1.61416332 4.80565275,2.49261325 3.67029859,3.60479195 C2.5344912,4.71697065 1.63844522,6.02585179 0.983067133,7.53236102 C0.327689044,9.03887025 0,10.6411851 0,12.3388429 C0,14.1323062 0.315904929,15.79988 0.948168023,17.3424899 C1.58043112,18.884637 2.45245563,20.2240649 3.56514803,21.3593851 C4.67693395,22.4956309 5.9885966,23.3861144 7.49877626,24.0317612 C9.00940916,24.677408 10.6424156,25 12.3991552,25 C14.1781033,25 15.8410232,24.682962 17.3865552,24.0498115 C18.9320872,23.4161983 20.2723037,22.5377484 21.4085643,21.4135361 C22.5439185,20.2897867 23.4336192,18.968872 24.0776664,17.4498663 C24.5898222,16.2423448 24.8948494,14.9538282 25,13.5870934 L20.2691311,13.5870934 Z" id="Fill-13" fill="#FFFFFF" mask="url(#mask-2)"></path>
                    </g>
                    <path d="M155.701499,24 L152.298501,24 C152.133866,24 152,23.8449246 152,23.6531698 L152,0.346830203 C152,0.155075352 152.133866,0 152.298501,0 L155.701499,0 C155.866533,0 156,0.155075352 156,0.346830203 L156,23.6531698 C156,23.8449246 155.866533,24 155.701499,24" id="Fill-16" fill="#FFFFFF"></path>
                    <mask id="mask-4" fill="white">
                        <use xlink:href="#path-3"></use>
                    </mask>
                    <g id="Clip-19"></g>
                    <polygon id="Fill-18" fill="#E41669" mask="url(#mask-4)" points="157 4 168 4 168 0 157 0"></polygon>
                    <polygon id="Fill-20" fill="#E41669" mask="url(#mask-4)" points="159 14 167 14 167 10 159 10"></polygon>
                    <polygon id="Fill-21" fill="#E41669" mask="url(#mask-4)" points="157 24 168 24 168 20 157 20"></polygon>
                    <path d="M46.8335285,1 L40,12 L52.9998434,12 C53.0219584,7.35408711 50.7003561,3.31375241 46.8335285,1" id="Fill-22" fill="#FF6721" mask="url(#mask-4)"></path>
                </g>
                <text id="問卷發送與洞察平台" font-family="PingFangTC-Medium, PingFang TC" font-size="18" font-weight="400" letter-spacing="3.28" fill="#FFFFFF">
                    <tspan x="0" y="49.3333333">問卷發送與洞察平台</tspan>
                </text>
            </g>
        </g>
    </g>
</svg>